<svg width="56" height="56" viewBox="0 0 56 56" fill="none" xmlns="http://www.w3.org/2000/svg">
    <path d="M33.707 34.4204H15.437C15.1285 34.4204 14.877 34.6698 14.877 34.9804C14.877 35.291 15.1285 35.5404 15.437 35.5404H33.707C34.0154 35.5404 34.267 35.291 34.267 34.9804C34.267 34.6698 34.0154 34.4204 33.707 34.4204Z" fill="#011627" fill-opacity="0.6"/>
    <path d="M33.707 37.8896H15.437C15.1285 37.8896 14.877 38.139 14.877 38.4496C14.877 38.7602 15.1285 39.0096 15.437 39.0096H33.707C34.0154 39.0096 34.267 38.7602 34.267 38.4496C34.267 38.1412 34.0154 37.8896 33.707 37.8896Z" fill="#011627" fill-opacity="0.6"/>
    <path d="M33.707 41.361H15.437C15.1285 41.361 14.877 41.6104 14.877 41.921C14.877 42.2317 15.1285 42.481 15.437 42.481H33.707C34.0154 42.481 34.267 42.2317 34.267 41.921C34.267 41.6104 34.0154 41.361 33.707 41.361Z" fill="#011627" fill-opacity="0.6"/>
    <path d="M24.572 31.6949C28.807 31.6949 32.2524 28.2496 32.2524 24.0145C32.2524 19.7794 28.8071 16.3318 24.572 16.3318C20.3369 16.3318 16.8916 19.7771 16.8916 24.0145C16.8894 28.2495 20.3369 31.6949 24.572 31.6949ZM24.572 17.4518C28.1901 17.4518 31.1324 20.3962 31.1324 24.0145C31.1324 27.6326 28.188 30.5749 24.572 30.5749C20.9539 30.5749 18.0116 27.6305 18.0116 24.0145C18.0094 20.3964 20.9538 17.4518 24.572 17.4518Z" fill="#011627" fill-opacity="0.6"/>
    <path d="M22.7129 27.4422C22.8179 27.5472 22.9601 27.6063 23.1089 27.6063C23.2576 27.6063 23.3998 27.5472 23.5048 27.4422L28.7264 22.2207C28.9451 22.0019 28.9451 21.6476 28.7264 21.4288C28.5076 21.21 28.1533 21.21 27.9345 21.4288L23.1088 26.2544L21.2079 24.3535C20.9892 24.1347 20.6348 24.1347 20.416 24.3535C20.1972 24.5722 20.1973 24.9266 20.416 25.1454L22.7129 27.4422Z" fill="#011627" fill-opacity="0.6"/>
    <path d="M8.51332 49.84C8.51332 50.1506 8.76488 50.4 9.07332 50.4H40.3521C40.6605 50.4 40.9121 50.1506 40.9121 49.84V46.2175L47.1332 45.4453C47.4394 45.4081 47.6582 45.1281 47.6188 44.8218L42.8172 6.09224C42.7997 5.9435 42.7232 5.81005 42.605 5.71818C42.4869 5.62849 42.3382 5.58693 42.1894 5.60662L20.8064 8.38915C20.7801 8.39352 20.7604 8.40665 20.7364 8.41321H9.0727C8.76426 8.41321 8.5127 8.66258 8.5127 8.97321L8.51332 49.84ZM41.7784 6.78776L46.4422 44.4041L40.9144 45.0888V8.97328C40.9144 8.66265 40.6628 8.41328 40.3544 8.41328H29.2944L41.7784 6.78776ZM9.63332 9.53305H39.7921L39.7943 49.2802H9.63326L9.63332 9.53305Z" fill="#011627" fill-opacity="0.6"/>
</svg>