
<svg width="112" height="112" viewBox="0 0 112 112" fill="none" xmlns="http://www.w3.org/2000/svg">
<g clip-path="url(#clip0)">
<path d="M98.8699 74.7928C95.8595 82.9515 91.3068 90.0455 85.3364 95.8757C78.5407 102.512 69.642 107.785 58.8873 111.546C58.5344 111.669 58.1661 111.77 57.7961 111.844C57.3074 111.941 56.8101 111.993 56.317 112H56.2205C55.695 112 55.1669 111.947 54.6431 111.844C54.2731 111.77 53.9099 111.669 53.5587 111.549C42.7913 107.793 33.8815 102.523 27.0788 95.8868C21.1059 90.0566 16.5541 82.9669 13.5479 74.8082C8.08176 59.9742 8.39279 43.6329 8.64316 30.5011L8.64743 30.2994C8.69785 29.215 8.73032 28.076 8.74826 26.8182C8.83969 20.6428 13.7496 15.5338 19.9259 15.1894C32.8031 14.4708 42.7648 10.2709 51.2764 1.97467L51.3507 1.90631C52.764 0.610048 54.5448 -0.0256947 56.317 0.000794698C58.026 0.0230116 59.7282 0.657899 61.0911 1.90631L61.1637 1.97467C69.677 10.2709 79.6387 14.4708 92.5159 15.1894C98.6922 15.5338 103.602 20.6428 103.694 26.8182C103.711 28.0846 103.744 29.2219 103.794 30.2994L103.797 30.3848C104.046 43.5415 104.356 59.9153 98.8699 74.7928Z" fill="#29EB7F"/>
<path d="M98.8693 74.7921C95.8589 82.9508 91.3062 90.0448 85.3358 95.875C78.5401 102.511 69.6414 107.784 58.8867 111.546C58.5338 111.669 58.1655 111.769 57.7955 111.844C57.3068 111.94 56.8094 111.992 56.3164 111.999V0C58.0254 0.0222169 59.7275 0.657105 61.0905 1.90552L61.1631 1.97388C69.6764 10.2702 79.6381 14.47 92.5153 15.1886C98.6915 15.533 103.601 20.642 103.693 26.8174C103.711 28.0838 103.743 29.2211 103.794 30.2986L103.796 30.3841C104.046 43.5407 104.355 59.9145 98.8693 74.7921Z" fill="#00D67D"/>
<path d="M84.1313 55.9988C84.1313 71.3566 71.6616 83.8579 56.3167 83.9126H56.2184C40.8281 83.9126 28.3047 71.3899 28.3047 55.9988C28.3047 40.6085 40.8281 28.0859 56.2184 28.0859H56.3167C71.6616 28.1406 84.1313 40.6419 84.1313 55.9988Z" fill="#F9FAFC"/>
<path d="M84.131 55.9988C84.131 71.3566 71.6614 83.8579 56.3164 83.9126V28.0859C71.6614 28.1406 84.131 40.6419 84.131 55.9988Z" fill="#EFF2F7"/>
<path d="M68.8885 51.9811L56.3172 64.5541L53.6008 67.2705C52.9591 67.9122 52.1174 68.2327 51.2766 68.2327C50.4349 68.2327 49.5941 67.9122 48.9515 67.2705L43.111 61.4275C41.8276 60.144 41.8276 58.065 43.111 56.7807C44.3928 55.4973 46.4743 55.4973 47.7578 56.7807L51.2766 60.2995L64.2418 47.3343C65.5252 46.05 67.6068 46.05 68.8885 47.3343C70.172 48.6178 70.172 50.6993 68.8885 51.9811Z" fill="#B4D2D7"/>
<path d="M68.8877 51.9811L56.3164 64.5541V55.258L64.241 47.3343C65.5244 46.05 67.606 46.05 68.8877 47.3343C70.1712 48.6178 70.1712 50.6993 68.8877 51.9811Z" fill="#6FA5AA"/>
</g>
<defs>
<clipPath id="clip0">
<rect width="112" height="112" fill="white"/>
</clipPath>
</defs>
</svg>
